solid ASCII
  facet normal -9.177415e-01 -3.971781e-01 0.000000e+00
    outer loop
      vertex   -9.289832e-16 -1.800977e+01 2.220446e-15
      vertex   -7.794229e+00 0.000000e+00 4.500000e+00
      vertex   -7.794229e+00 0.000000e+00 -4.500000e+00
    endloop
  endfacet
  facet normal 4.588708e-01 -3.971781e-01 7.947875e-01
    outer loop
      vertex   0.000000e+00 0.000000e+00 9.000000e+00
      vertex   -9.289832e-16 -1.800977e+01 2.220446e-15
      vertex   7.794229e+00 0.000000e+00 4.500000e+00
    endloop
  endfacet
  facet normal 4.588708e-01 -3.971781e-01 -7.947875e-01
    outer loop
      vertex   7.794229e+00 0.000000e+00 -4.500000e+00
      vertex   -9.289832e-16 -1.800977e+01 2.220446e-15
      vertex   0.000000e+00 0.000000e+00 -9.000000e+00
    endloop
  endfacet
  facet normal -4.588708e-01 -3.971781e-01 -7.947875e-01
    outer loop
      vertex   -9.289832e-16 -1.800977e+01 2.220446e-15
      vertex   -7.794229e+00 0.000000e+00 -4.500000e+00
      vertex   0.000000e+00 0.000000e+00 -9.000000e+00
    endloop
  endfacet
  facet normal -4.588708e-01 -3.971781e-01 7.947875e-01
    outer loop
      vertex   -7.794229e+00 0.000000e+00 4.500000e+00
      vertex   -9.289832e-16 -1.800977e+01 2.220446e-15
      vertex   0.000000e+00 0.000000e+00 9.000000e+00
    endloop
  endfacet
  facet normal 9.177415e-01 -3.971781e-01 0.000000e+00
    outer loop
      vertex   7.794229e+00 0.000000e+00 4.500000e+00
      vertex   -9.289832e-16 -1.800977e+01 2.220446e-15
      vertex   7.794229e+00 0.000000e+00 -4.500000e+00
    endloop
  endfacet
  facet normal 0.000000e+00 1.000000e+00 0.000000e+00
    outer loop
      vertex   7.794229e+00 0.000000e+00 4.500000e+00
      vertex   5.196152e+00 0.000000e+00 3.000000e+00
      vertex   0.000000e+00 0.000000e+00 9.000000e+00
    endloop
  endfacet
  facet normal 0.000000e+00 1.000000e+00 0.000000e+00
    outer loop
      vertex   0.000000e+00 0.000000e+00 9.000000e+00
      vertex   5.196152e+00 0.000000e+00 3.000000e+00
      vertex   0.000000e+00 0.000000e+00 6.000000e+00
    endloop
  endfacet
  facet normal 0.000000e+00 1.000000e+00 0.000000e+00
    outer loop
      vertex   0.000000e+00 0.000000e+00 9.000000e+00
      vertex   0.000000e+00 0.000000e+00 6.000000e+00
      vertex   -5.196152e+00 0.000000e+00 3.000000e+00
    endloop
  endfacet
  facet normal -0.000000e+00 1.000000e+00 0.000000e+00
    outer loop
      vertex   5.196152e+00 0.000000e+00 3.000000e+00
      vertex   7.794229e+00 0.000000e+00 4.500000e+00
      vertex   5.196152e+00 0.000000e+00 -3.000000e+00
    endloop
  endfacet
  facet normal -0.000000e+00 1.000000e+00 0.000000e+00
    outer loop
      vertex   5.196152e+00 0.000000e+00 -3.000000e+00
      vertex   7.794229e+00 0.000000e+00 4.500000e+00
      vertex   7.794229e+00 0.000000e+00 -4.500000e+00
    endloop
  endfacet
  facet normal 0.000000e+00 1.000000e+00 0.000000e+00
    outer loop
      vertex   5.196152e+00 0.000000e+00 -3.000000e+00
      vertex   7.794229e+00 0.000000e+00 -4.500000e+00
      vertex   0.000000e+00 0.000000e+00 -9.000000e+00
    endloop
  endfacet
  facet normal -0.000000e+00 1.000000e+00 0.000000e+00
    outer loop
      vertex   -7.794229e+00 0.000000e+00 -4.500000e+00
      vertex   -5.196152e+00 0.000000e+00 -3.000000e+00
      vertex   0.000000e+00 0.000000e+00 -9.000000e+00
    endloop
  endfacet
  facet normal 0.000000e+00 1.000000e+00 -0.000000e+00
    outer loop
      vertex   0.000000e+00 0.000000e+00 -9.000000e+00
      vertex   -5.196152e+00 0.000000e+00 -3.000000e+00
      vertex   0.000000e+00 0.000000e+00 -6.000000e+00
    endloop
  endfacet
  facet normal 0.000000e+00 1.000000e+00 0.000000e+00
    outer loop
      vertex   0.000000e+00 0.000000e+00 -9.000000e+00
      vertex   0.000000e+00 0.000000e+00 -6.000000e+00
      vertex   5.196152e+00 0.000000e+00 -3.000000e+00
    endloop
  endfacet
  facet normal 0.000000e+00 1.000000e+00 0.000000e+00
    outer loop
      vertex   -7.794229e+00 0.000000e+00 -4.500000e+00
      vertex   -7.794229e+00 0.000000e+00 4.500000e+00
      vertex   -5.196152e+00 0.000000e+00 -3.000000e+00
    endloop
  endfacet
  facet normal 0.000000e+00 1.000000e+00 -0.000000e+00
    outer loop
      vertex   -5.196152e+00 0.000000e+00 -3.000000e+00
      vertex   -7.794229e+00 0.000000e+00 4.500000e+00
      vertex   -5.196152e+00 0.000000e+00 3.000000e+00
    endloop
  endfacet
  facet normal 0.000000e+00 1.000000e+00 -0.000000e+00
    outer loop
      vertex   -5.196152e+00 0.000000e+00 3.000000e+00
      vertex   -7.794229e+00 0.000000e+00 4.500000e+00
      vertex   0.000000e+00 0.000000e+00 9.000000e+00
    endloop
  endfacet
  facet normal -1.000000e+00 0.000000e+00 0.000000e+00
    outer loop
      vertex   -5.196152e+00 0.000000e+00 -3.000000e+00
      vertex   -5.196152e+00 0.000000e+00 3.000000e+00
      vertex   -5.196152e+00 1.300000e+01 -3.000000e+00
    endloop
  endfacet
  facet normal -1.000000e+00 0.000000e+00 0.000000e+00
    outer loop
      vertex   -5.196152e+00 1.300000e+01 -3.000000e+00
      vertex   -5.196152e+00 0.000000e+00 3.000000e+00
      vertex   -5.196152e+00 1.300000e+01 3.000000e+00
    endloop
  endfacet
  facet normal -5.000000e-01 0.000000e+00 -8.660254e-01
    outer loop
      vertex   0.000000e+00 0.000000e+00 -6.000000e+00
      vertex   -5.196152e+00 0.000000e+00 -3.000000e+00
      vertex   0.000000e+00 1.300000e+01 -6.000000e+00
    endloop
  endfacet
  facet normal -5.000000e-01 0.000000e+00 -8.660254e-01
    outer loop
      vertex   0.000000e+00 1.300000e+01 -6.000000e+00
      vertex   -5.196152e+00 0.000000e+00 -3.000000e+00
      vertex   -5.196152e+00 1.300000e+01 -3.000000e+00
    endloop
  endfacet
  facet normal 5.000000e-01 0.000000e+00 -8.660254e-01
    outer loop
      vertex   5.196152e+00 0.000000e+00 -3.000000e+00
      vertex   0.000000e+00 0.000000e+00 -6.000000e+00
      vertex   5.196152e+00 1.300000e+01 -3.000000e+00
    endloop
  endfacet
  facet normal 5.000000e-01 0.000000e+00 -8.660254e-01
    outer loop
      vertex   5.196152e+00 1.300000e+01 -3.000000e+00
      vertex   0.000000e+00 0.000000e+00 -6.000000e+00
      vertex   0.000000e+00 1.300000e+01 -6.000000e+00
    endloop
  endfacet
  facet normal 1.000000e+00 -0.000000e+00 0.000000e+00
    outer loop
      vertex   5.196152e+00 0.000000e+00 3.000000e+00
      vertex   5.196152e+00 0.000000e+00 -3.000000e+00
      vertex   5.196152e+00 1.300000e+01 3.000000e+00
    endloop
  endfacet
  facet normal 1.000000e+00 0.000000e+00 0.000000e+00
    outer loop
      vertex   5.196152e+00 1.300000e+01 3.000000e+00
      vertex   5.196152e+00 0.000000e+00 -3.000000e+00
      vertex   5.196152e+00 1.300000e+01 -3.000000e+00
    endloop
  endfacet
  facet normal 5.000000e-01 -0.000000e+00 8.660254e-01
    outer loop
      vertex   0.000000e+00 0.000000e+00 6.000000e+00
      vertex   5.196152e+00 0.000000e+00 3.000000e+00
      vertex   0.000000e+00 1.300000e+01 6.000000e+00
    endloop
  endfacet
  facet normal 5.000000e-01 0.000000e+00 8.660254e-01
    outer loop
      vertex   0.000000e+00 1.300000e+01 6.000000e+00
      vertex   5.196152e+00 0.000000e+00 3.000000e+00
      vertex   5.196152e+00 1.300000e+01 3.000000e+00
    endloop
  endfacet
  facet normal -5.000000e-01 0.000000e+00 8.660254e-01
    outer loop
      vertex   -5.196152e+00 0.000000e+00 3.000000e+00
      vertex   0.000000e+00 0.000000e+00 6.000000e+00
      vertex   -5.196152e+00 1.300000e+01 3.000000e+00
    endloop
  endfacet
  facet normal -5.000000e-01 0.000000e+00 8.660254e-01
    outer loop
      vertex   -5.196152e+00 1.300000e+01 3.000000e+00
      vertex   0.000000e+00 0.000000e+00 6.000000e+00
      vertex   0.000000e+00 1.300000e+01 6.000000e+00
    endloop
  endfacet
  facet normal -0.000000e+00 1.000000e+00 0.000000e+00
    outer loop
      vertex   -5.196152e+00 1.300000e+01 -3.000000e+00
      vertex   -5.196152e+00 1.300000e+01 3.000000e+00
      vertex   0.000000e+00 1.300000e+01 -6.000000e+00
    endloop
  endfacet
  facet normal 0.000000e+00 1.000000e+00 -0.000000e+00
    outer loop
      vertex   0.000000e+00 1.300000e+01 -6.000000e+00
      vertex   -5.196152e+00 1.300000e+01 3.000000e+00
      vertex   0.000000e+00 1.300000e+01 6.000000e+00
    endloop
  endfacet
  facet normal 0.000000e+00 1.000000e+00 0.000000e+00
    outer loop
      vertex   0.000000e+00 1.300000e+01 -6.000000e+00
      vertex   0.000000e+00 1.300000e+01 6.000000e+00
      vertex   5.196152e+00 1.300000e+01 -3.000000e+00
    endloop
  endfacet
  facet normal 0.000000e+00 1.000000e+00 -0.000000e+00
    outer loop
      vertex   5.196152e+00 1.300000e+01 -3.000000e+00
      vertex   0.000000e+00 1.300000e+01 6.000000e+00
      vertex   5.196152e+00 1.300000e+01 3.000000e+00
    endloop
  endfacet
endsolid
