{"accessors":[{"bufferView":0,"byteOffset":0,"componentType":5126,"count":49795,"max":[1735.470458984375,500.0,250.0],"min":[468.0230407714844,-3.552713678800501e-14,-250.00001525878906],"type":"VEC3"},{"bufferView":1,"byteOffset":0,"componentType":5126,"count":49795,"normalized":false,"type":"VEC2"},{"bufferView":2,"byteOffset":0,"componentType":5125,"count":298746,"type":"SCALAR"}],"asset":{"generator":"VTK","version":"2.0"},"bufferViews":[{"buffer":0,"byteLength":597540,"byteOffset":0,"target":34962},{"buffer":1,"byteLength":398360,"byteOffset":0,"target":34962},{"buffer":2,"byteLength":1194984,"byteOffset":0,"target":34963},{"buffer":3,"byteLength":273,"byteOffset":0,"target":34962}],"buffers":[{"byteLength":597540,"uri":"data:application/octet-stream;base64,"},{"byteLength":398360,"uri":"data:application/octet-stream;base64,"},{"byteLength":1194984,"uri":"data:application/octet-stream;base64,"},{"byteLength":273,"uri":"data:application/octet-stream;base64,"}],"cameras":[{"perspective":{"aspectRatio":1.8967661691542288,"yfov":0.5235987755982988,"zfar":2903.2308293405795,"znear":525.262651276467},"type":"perspective"}],"images":[{"bufferView":3,"mimeType":"image/png"}],"materials":[{"pbrMetallicRoughness":{"baseColorFactor":[1.0,1.0,1.0,1.0],"baseColorTexture":{"index":0,"texCoord":0},"metallicFactor":0.0,"roughnessFactor":1.0}}],"meshes":[{"name":"mesh0","primitives":[{"attributes":{"POSITION":0,"TEXCOORD_0":1},"indices":2,"material":0,"mode":4}]}],"nodes":[{"mesh":0,"name":"mesh0"},{"camera":0,"matrix":[0.9490063043962238,0.12040081738831995,0.29136004768747215,-0.0,0.12986581260916372,0.692839836153509,-0.7093009461111273,0.0,-0.28726626138755523,0.7109687789284443,0.6418734224575852,-0.0,648.7725292781237,1370.6958440259918,1011.7812382688207,1.0],"name":"Camera Node"},{"children":[0,1],"name":"Renderer Node"}],"samplers":[{"magFilter":9728,"minFilter":9728,"wrapS":33071,"wrapT":33071}],"scene":0,"scenes":[{"name":"Layer 0","nodes":[2]}],"textures":[{"sampler":0,"source":0}]}